<?xml version="1.0" encoding="UTF-8"?> <svg xmlns="http://www.w3.org/2000/svg" viewBox="0 0 105 105"><defs><style>.cls-1{fill:#fff;}.cls-2{fill:#414141;}.cls-3,.cls-4{fill:#00a5d9;}.cls-3{stroke:#fff;stroke-miterlimit:10;stroke-width:0.5px;}</style></defs><g id="cirlces"><circle class="cls-1" cx="52.5" cy="52.5" r="52.25"></circle><path class="cls-2" d="M52.5.5a52,52,0,1,1-52,52,52.0589,52.0589,0,0,1,52-52m0-.5A52.5,52.5,0,1,0,105,52.5,52.5,52.5,0,0,0,52.5,0Z"></path></g><g id="Art"><path class="cls-3" d="M52.7353,31.95a.8724.8724,0,0,0,.8724-.8724V24.1985a6.5082,6.5082,0,1,0-1.7449,0v6.8793A.8724.8724,0,0,0,52.7353,31.95ZM47.9719,17.76a4.7634,4.7634,0,1,1,4.7634,4.7634h0A4.7633,4.7633,0,0,1,47.9719,17.76Z"></path><path class="cls-3" d="M52.7353,72.56a.8724.8724,0,0,0-.8725.8724v6.8793a6.5082,6.5082,0,1,0,1.7449,0V73.4328A.8724.8724,0,0,0,52.7353,72.56Zm4.7633,14.19a4.7634,4.7634,0,1,1-4.7721-4.7547h.0088A4.7633,4.7633,0,0,1,57.4986,86.7505Z"></path><path class="cls-3" d="M77.1628,34.3621a6.5082,6.5082,0,1,0-5.2345-2.5649l-4.9642,4.9643a.8724.8724,0,1,0,1.23,1.23l4.9991-4.9294A6.49,6.49,0,0,0,77.1628,34.3621ZM73.76,24.4952a4.7634,4.7634,0,1,1,.0014,6.7364L73.76,31.23a4.7459,4.7459,0,0,1-.0233-6.7117Z"></path><path class="cls-3" d="M38.1628,66.8275a.8725.8725,0,0,0-1.23,0L31.96,71.7656a6.5256,6.5256,0,1,0,1.265,1.265l4.9642-4.9643a.8724.8724,0,0,0-.0207-1.2336Zm-6.77,13.5051A4.7633,4.7633,0,1,1,32.7886,77,4.7634,4.7634,0,0,1,31.3927,80.3326Z"></path><path class="cls-3" d="M72.53,81.2455a6.5082,6.5082,0,1,0,.663-9.7971l-4.9642-4.9643a.8724.8724,0,0,0-1.23,1.23l4.9293,4.9992A6.5081,6.5081,0,0,0,72.53,81.2455ZM80.4954,73.28a4.7635,4.7635,0,1,1-3.3326-1.3958A4.7633,4.7633,0,0,1,80.4954,73.28Z"></path><path class="cls-3" d="M38.2257,36.9781l-4.9381-4.973a6.5169,6.5169,0,1,0-1.265,1.265l4.9642,4.9643a.8724.8724,0,0,0,1.23-1.23Zm-13.5052-5.54a4.7634,4.7634,0,1,1,6.7364-.0014l-.0014.0014a4.7284,4.7284,0,0,1-6.6868.0481Z"></path><path class="cls-3" d="M93.7386,52.5557a6.4995,6.4995,0,0,0-12.9466-.8725H73.9128a.8725.8725,0,0,0,0,1.7449H80.792a6.4995,6.4995,0,0,0,12.9466-.8724Zm-11.2715,0A4.7634,4.7634,0,1,1,87.23,57.319h0A4.7633,4.7633,0,0,1,82.4671,52.5557Z"></path><path class="cls-3" d="M18.24,58.7635a6.5082,6.5082,0,0,0,6.4384-5.6358h6.8793a.8724.8724,0,0,0,0-1.7448H24.6785A6.4995,6.4995,0,1,0,18.24,58.7635Zm0-11.2716a4.7634,4.7634,0,1,1-4.7634,4.7634h0A4.7635,4.7635,0,0,1,18.24,47.4919Z"></path><path class="cls-4" d="M37.4826,37.42a21.2828,21.2828,0,1,0,30.0985.0014A21.3242,21.3242,0,0,0,37.4826,37.42Zm.4233,1.2683,6.4986,6.4986-.386.4811a10.896,10.896,0,1,0,19.3372,8.0137l.069-.6135,9.1868-.0014-.0455.7348A20.0761,20.0761,0,0,1,38.3318,66.6729l-.0013-.0013a20.1146,20.1146,0,0,1-.9085-27.4295Zm.845-.8451.5542-.4852a20.1133,20.1133,0,0,1,26.4535,0l.5542.4852-6.4986,6.4986-.4811-.386a10.9148,10.9148,0,0,0-13.6011,0l-.4811.386L39.272,38.3625Zm6.92,7.7655a9.7012,9.7012,0,1,1,0,13.72A9.7191,9.7191,0,0,1,45.6714,45.6083Zm14.9878-.4218,6.4986-6.4986.4853.5542a19.9977,19.9977,0,0,1,4.9215,11.8943l.0455.7348H63.4219l-.0689-.6135a10.8374,10.8374,0,0,0-2.3078-5.59Z"></path></g></svg> 