<?xml version="1.0" encoding="UTF-8"?> <svg xmlns="http://www.w3.org/2000/svg" viewBox="0 0 105 105"><defs><style>.cls-1,.cls-5{fill:#fff;}.cls-2{fill:#414141;}.cls-3,.cls-6{fill:#00a5d9;stroke:#fff;}.cls-3,.cls-4,.cls-5,.cls-6{stroke-miterlimit:10;}.cls-3{stroke-width:0.5px;}.cls-4{fill:none;}.cls-4,.cls-5{stroke:#00a5d9;stroke-width:1.25px;}.cls-6{stroke-width:0.25px;}</style></defs><g id="cirlces"><circle class="cls-1" cx="52.5" cy="52.5" r="52.25"></circle><path class="cls-2" d="M52.5.5a52,52,0,1,1-52,52,52.0589,52.0589,0,0,1,52-52m0-.5A52.5,52.5,0,1,0,105,52.5,52.5,52.5,0,0,0,52.5,0Z"></path></g><g id="Art"><path class="cls-3" d="M87.5,28.2933H20.2519V64.2748H87.5ZM85.6739,62.4487H22.078V30.1194H85.6739Z"></path><path class="cls-3" d="M28.5087,33.7835a5.0983,5.0983,0,0,1-.3835.661l-.0557.0731a5.1011,5.1011,0,0,1-1.1934,1.1778,5.3772,5.3772,0,0,1-.6665.3862l-.1123.0548a4.9953,4.9953,0,0,1-.7113.2584l-.1269.0329a4.9764,4.9764,0,0,1-.787.1333l-.8665.05V56.009h.8354l.0457.0018a4.8449,4.8449,0,0,1,.777.1333l.1232.031a4.7619,4.7619,0,0,1,.715.26l.1123.0538a4.96,4.96,0,0,1,.7313.4356,5.1284,5.1284,0,0,1,1.1833,1.2024,4.6151,4.6151,0,0,1,.38.6556l.0566.1151a5.1373,5.1373,0,0,1,.26.714l.0319.1232a5.19,5.19,0,0,1,.1333.798l.0521.86H78.71l.0538-.8811a4.77,4.77,0,0,1,.1315-.7733l.032-.126a4.7971,4.7971,0,0,1,.26-.714l.052-.1087a4.9977,4.9977,0,0,1,.4374-.735,5.1273,5.1273,0,0,1,1.1988-1.1824,4.9159,4.9159,0,0,1,.662-.3826l.1114-.0547a5.02,5.02,0,0,1,.7185-.2612l.1224-.031a4.9205,4.9205,0,0,1,.8-.1342l.8565-.0019V36.61l-.8839-.0521a4.8061,4.8061,0,0,1-.7779-.1333l-.1214-.03a5.0514,5.0514,0,0,1-.7168-.26l-.1068-.0521a5.1134,5.1134,0,0,1-.7341-.4364,4.9463,4.9463,0,0,1-1.124-1.1222l-.0557-.0757a4.955,4.955,0,0,1-.3834-.662l-.0567-.1178a4.8083,4.8083,0,0,1-.26-.714l-.031-.12a5.22,5.22,0,0,1-.1315-.7505l-.0575-.9067H29.9029l-.8853-.01-.0332.894a4.8366,4.8366,0,0,1-.1334.778l-.031.1223a4.9024,4.9024,0,0,1-.2575.7122ZM25.4317,38.26c.1013-.021.2081-.0466.3186-.074l.1324-.0338a6.655,6.655,0,0,0,.9514-.346c.0521-.0219.1023-.0466.18-.0859a7.044,7.044,0,0,0,.8975-.52l.0995-.074a6.7754,6.7754,0,0,0,1.5422-1.543l.0694-.095a7.0354,7.0354,0,0,0,.5606-.9751l.04-.0849a6.83,6.83,0,0,0,.3551-.9742l.0457-.1772c.0219-.09.0438-.1808.0621-.2721H77.0611c.021.1032.0466.2091.073.3187l.0329.1269a6.3715,6.3715,0,0,0,.3506.9642l.0785.168a6.8594,6.8594,0,0,0,.526.9076l.0693.0949a6.8816,6.8816,0,0,0,1.5632,1.5586l.0785.0566a6.9544,6.9544,0,0,0,.96.5524l.1.0484a6.9111,6.9111,0,0,0,.98.3561l.1735.0456c.0913.0219.1807.0429.27.0612V54.31c-.1013.021-.2072.0465-.3168.073l-.1288.0338a6.8278,6.8278,0,0,0-.9641.35l-.1653.0785a6.69,6.69,0,0,0-.9121.5287l-.0913.0666a6.8011,6.8011,0,0,0-1.5513,1.5522l-.0648.0886a7.3557,7.3557,0,0,0-.5534.9623l-.0429.0914a6.6408,6.6408,0,0,0-.3615.9924l-.042.1662c-.0229.0922-.0448.1826-.063.2748H30.6881c-.0219-.1068-.0484-.2191-.0776-.3378l-.0283-.1132a6.7967,6.7967,0,0,0-.347-.9514c-.0283-.0667-.0593-.1306-.0821-.1735a6.4911,6.4911,0,0,0-.5141-.8884l-.0831-.1159A6.8113,6.8113,0,0,0,28.0065,55.44l-.0886-.0648a6.9786,6.9786,0,0,0-.9432-.5451l-.1123-.0548a6.6713,6.6713,0,0,0-.9751-.3561l-.1817-.0465c-.0922-.0228-.1835-.0448-.2739-.063Z"></path><path class="cls-4" d="M20.8349,59.87H17.5V25.6856H83.24V28.55"></path><circle class="cls-5" cx="35.818" cy="76.526" r="8.7653"></circle><path class="cls-6" d="M39.228,73.11,34.21,78.1366l-1.8023-1.8748a.8947.8947,0,0,0-1.3013.0118h0a.8948.8948,0,0,0,.0229,1.24l2.4518,2.456a.8949.8949,0,0,0,1.2622.0044l5.6549-5.587a.895.895,0,0,0,.0273-1.2449l-.008-.0086A.8948.8948,0,0,0,39.228,73.11Z"></path><line class="cls-4" x1="52.5839" y1="70.8378" x2="70.991" y2="70.8378"></line><line class="cls-4" x1="49.0273" y1="70.8378" x2="50.7803" y2="70.8378"></line><line class="cls-4" x1="49.0218" y1="76.5353" x2="50.7749" y2="76.5353"></line><line class="cls-4" x1="49.0273" y1="82.2327" x2="50.7804" y2="82.2327"></line><line class="cls-4" x1="52.528" y1="76.5353" x2="79.7004" y2="76.5353"></line><line class="cls-4" x1="52.5839" y1="82.2327" x2="68.3615" y2="82.2327"></line><ellipse class="cls-5" cx="53" cy="46.5" rx="8" ry="10"></ellipse></g></svg> 