<?xml version="1.0" encoding="UTF-8"?> <svg xmlns="http://www.w3.org/2000/svg" viewBox="0 0 105 105"><defs><style>.cls-1{fill:#fff;}.cls-2{fill:#414141;}.cls-3{fill:none;stroke:#00a5d9;stroke-width:1.25px;}.cls-3,.cls-4{stroke-miterlimit:10;}.cls-4{fill:#00a5d9;stroke:#fff;stroke-width:0.4px;}</style></defs><g id="cirlces"><circle class="cls-1" cx="52.5" cy="52.5" r="52.25"></circle><path class="cls-2" d="M52.5.5a52,52,0,1,1-52,52,52.0589,52.0589,0,0,1,52-52m0-.5A52.5,52.5,0,1,0,105,52.5,52.5,52.5,0,0,0,52.5,0Z"></path></g><g id="Art"><line class="cls-3" x1="26.6903" y1="26.6906" x2="78.3091" y2="78.3094"></line><line class="cls-3" x1="52.4997" y1="16" x2="52.4997" y2="89"></line><line class="cls-3" x1="78.3091" y1="26.6906" x2="26.6903" y2="78.3094"></line><circle class="cls-1" cx="52.4997" cy="52.5" r="30.4111"></circle><path class="cls-4" d="M52.49,39.93A12.5687,12.5687,0,1,0,65.0583,52.4987,12.58,12.58,0,0,0,52.49,39.93Zm0,23.3375A10.7691,10.7691,0,1,1,63.2589,52.4987,10.7787,10.7787,0,0,1,52.49,63.2676Z"></path><path class="cls-4" d="M53.044,29.7412c-22.7081,0-39.1029,21.9876-39.2656,22.21a.9176.9176,0,0,0,.0306,1.12l.0931.12C25.8212,67.8343,38.6188,75.2588,51.9407,75.2588c22.6133,0,38.582-21.284,39.2509-22.19a.9338.9338,0,0,0-.0038-1.1637C79.2217,37.1988,66.388,29.7412,53.044,29.7412ZM88.3006,53.779C83.297,59.696,69.7382,73.4569,51.9432,73.4569c-12.2215,0-24.0831-6.6286-35.255-19.7014L15.61,52.4841l1.0714-1.2707c5.0066-5.9161,18.5712-19.6753,36.3629-19.6753l.4294.0054c12.0675.1531,23.78,6.7767,34.82,19.693l1.079,1.2715Z"></path></g></svg> 